<svg width="36" height="36" viewBox="0 0 36 36" fill="none" xmlns="http://www.w3.org/2000/svg">
<rect width="36" height="36" rx="18" fill="white"/>
<path d="M16.46 25.84L15.28 25.26L21.54 11.7L22.74 12.32L16.46 25.84ZM24.8 24.06V22.54L31.78 18.62L24.84 15.08V13.66L33.32 18.12V19.08L24.8 24.06Z" fill="black"/>
<path d="M9.17898 24.2131C8.05682 24.2131 7.09091 23.9858 6.28125 23.5312C5.47633 23.072 4.85606 22.4233 4.42045 21.5852C3.98485 20.7424 3.76705 19.7457 3.76705 18.5952C3.76705 17.473 3.98485 16.4882 4.42045 15.6406C4.85606 14.7931 5.46922 14.1326 6.25994 13.6591C7.0554 13.1856 7.98816 12.9489 9.05824 12.9489C9.77794 12.9489 10.4479 13.0649 11.0682 13.2969C11.6932 13.5241 12.2377 13.8674 12.7017 14.3267C13.1705 14.786 13.535 15.3636 13.7955 16.0597C14.0559 16.7509 14.1861 17.5606 14.1861 18.4886V19.3196H4.97443V17.4446H11.3381C11.3381 17.009 11.2434 16.6231 11.054 16.2869C10.8646 15.9508 10.6018 15.688 10.2656 15.4986C9.93419 15.3045 9.5483 15.2074 9.10795 15.2074C8.64867 15.2074 8.24148 15.3139 7.88636 15.527C7.53598 15.7353 7.26136 16.017 7.0625 16.3722C6.86364 16.7225 6.76184 17.1132 6.7571 17.544V19.3267C6.7571 19.8665 6.85653 20.3329 7.0554 20.7259C7.259 21.1188 7.54545 21.4219 7.91477 21.6349C8.28409 21.848 8.72206 21.9545 9.22869 21.9545C9.56487 21.9545 9.87263 21.9072 10.152 21.8125C10.4313 21.7178 10.6705 21.5758 10.8693 21.3864C11.0682 21.197 11.2197 20.965 11.3239 20.6903L14.1222 20.875C13.9801 21.5473 13.6889 22.1345 13.2486 22.6364C12.813 23.1335 12.2495 23.5218 11.5582 23.8011C10.8717 24.0758 10.0786 24.2131 9.17898 24.2131Z" fill="black"/>
</svg>
